<svg width="20" height="20" viewBox="0 0 20 20" fill="none" xmlns="http://www.w3.org/2000/svg">
<path d="M14.1667 14.9998C14.1667 15.4601 14.5398 15.8332 15 15.8332C15.4603 15.8332 15.8334 15.4601 15.8334 14.9998C15.8334 14.5396 15.4603 14.1665 15 14.1665C14.5398 14.1665 14.1667 14.5396 14.1667 14.9998Z" stroke="currentColor" stroke-width="1.5" stroke-linecap="round" stroke-linejoin="round"/>
<path d="M9.16669 14.9998C9.16669 15.4601 9.53978 15.8332 10 15.8332C10.4603 15.8332 10.8334 15.4601 10.8334 14.9998C10.8334 14.5396 10.4603 14.1665 10 14.1665C9.53978 14.1665 9.16669 14.5396 9.16669 14.9998Z" stroke="currentColor" stroke-width="1.5" stroke-linecap="round" stroke-linejoin="round"/>
<path d="M4.16669 14.9998C4.16669 15.4601 4.53978 15.8332 5.00002 15.8332C5.46026 15.8332 5.83335 15.4601 5.83335 14.9998C5.83335 14.5396 5.46026 14.1665 5.00002 14.1665C4.53978 14.1665 4.16669 14.5396 4.16669 14.9998Z" stroke="currentColor" stroke-width="1.5" stroke-linecap="round" stroke-linejoin="round"/>
<path d="M14.1667 9.99984C14.1667 10.4601 14.5398 10.8332 15 10.8332C15.4603 10.8332 15.8334 10.4601 15.8334 9.99984C15.8334 9.5396 15.4603 9.1665 15 9.1665C14.5398 9.1665 14.1667 9.5396 14.1667 9.99984Z" stroke="currentColor" stroke-width="1.5" stroke-linecap="round" stroke-linejoin="round"/>
<path d="M9.16669 9.99984C9.16669 10.4601 9.53978 10.8332 10 10.8332C10.4603 10.8332 10.8334 10.4601 10.8334 9.99984C10.8334 9.5396 10.4603 9.1665 10 9.1665C9.53978 9.1665 9.16669 9.5396 9.16669 9.99984Z" stroke="currentColor" stroke-width="1.5" stroke-linecap="round" stroke-linejoin="round"/>
<path d="M4.16669 9.99984C4.16669 10.4601 4.53978 10.8332 5.00002 10.8332C5.46026 10.8332 5.83335 10.4601 5.83335 9.99984C5.83335 9.5396 5.46026 9.1665 5.00002 9.1665C4.53978 9.1665 4.16669 9.5396 4.16669 9.99984Z" stroke="currentColor" stroke-width="1.5" stroke-linecap="round" stroke-linejoin="round"/>
<path d="M14.1667 4.99984C14.1667 5.46007 14.5398 5.83317 15 5.83317C15.4603 5.83317 15.8334 5.46007 15.8334 4.99984C15.8334 4.5396 15.4603 4.1665 15 4.1665C14.5398 4.1665 14.1667 4.5396 14.1667 4.99984Z" stroke="currentColor" stroke-width="1.5" stroke-linecap="round" stroke-linejoin="round"/>
<path d="M9.16669 4.99984C9.16669 5.46007 9.53978 5.83317 10 5.83317C10.4603 5.83317 10.8334 5.46007 10.8334 4.99984C10.8334 4.5396 10.4603 4.1665 10 4.1665C9.53978 4.1665 9.16669 4.5396 9.16669 4.99984Z" stroke="currentColor" stroke-width="1.5" stroke-linecap="round" stroke-linejoin="round"/>
<path d="M4.16669 4.99984C4.16669 5.46007 4.53978 5.83317 5.00002 5.83317C5.46026 5.83317 5.83335 5.46007 5.83335 4.99984C5.83335 4.5396 5.46026 4.1665 5.00002 4.1665C4.53978 4.1665 4.16669 4.5396 4.16669 4.99984Z" stroke="currentColor" stroke-width="1.5" stroke-linecap="round" stroke-linejoin="round"/>
</svg>
