<svg width="20" height="20" viewBox="17 12 18 16" fill="none" xmlns="http://www.w3.org/2000/svg">
<path d="M18.5 18.6665H19.3712M19.3712 18.6665H32.6288M19.3712 18.6665C19.3805 18.6236 19.3915 18.5811 19.4041 18.5391C19.4343 18.4389 19.477 18.3425 19.5628 18.1494L20.8514 15.2502C21.1061 14.6769 21.2337 14.3902 21.4351 14.18C21.6131 13.9942 21.8314 13.8523 22.0734 13.7651C22.3472 13.6665 22.6611 13.6665 23.2884 13.6665H28.7113C29.3386 13.6665 29.6528 13.6665 29.9266 13.7651C30.1687 13.8523 30.3866 13.9942 30.5646 14.18C30.7658 14.39 30.8932 14.6766 31.1476 15.249L32.4413 18.1599C32.524 18.346 32.5661 18.4407 32.5958 18.5391C32.6085 18.5811 32.6195 18.6236 32.6288 18.6665M19.3712 18.6665C19.3608 18.7145 19.3526 18.763 19.3464 18.8118C19.3333 18.9156 19.3333 19.0212 19.3333 19.2325V23.6665M32.6288 18.6665H33.5M32.6288 18.6665C32.6392 18.7145 32.6475 18.763 32.6536 18.8118C32.6667 18.915 32.6667 19.02 32.6667 19.2287V23.6666M32.6667 23.6666L29.3333 23.6666M32.6667 23.6666V24.4997C32.6667 25.4202 31.9205 26.1665 31 26.1665C30.0795 26.1665 29.3333 25.4203 29.3333 24.4998V23.6666M29.3333 23.6666L22.6667 23.6665M22.6667 23.6665H19.3333M22.6667 23.6665V24.4998C22.6667 25.4203 21.9205 26.1665 21 26.1665C20.0795 26.1665 19.3333 25.4203 19.3333 24.4998V23.6665" stroke="currentColor" stroke-width="1.5" stroke-linecap="round" stroke-linejoin="round"/>
</svg>
