<svg width="20" height="20" viewBox="18 10 16 18" fill="none" xmlns="http://www.w3.org/2000/svg">
<path d="M28.5 23.6667V24.5C28.5 25.8807 27.3807 27 26 27C24.6193 27 23.5 25.8807 23.5 24.5V23.6667M28.5 23.6667H23.5M28.5 23.6667H31.4921C31.8108 23.6667 31.971 23.6667 32.1001 23.6231C32.3466 23.54 32.5395 23.3464 32.6227 23.0998C32.6664 22.9702 32.6664 22.8096 32.6664 22.4883C32.6664 22.3477 32.6663 22.2774 32.6553 22.2104C32.6345 22.0837 32.5853 21.9636 32.5104 21.8593C32.4709 21.8043 32.4206 21.754 32.3215 21.6549L31.9969 21.3302C31.8922 21.2255 31.8333 21.0834 31.8333 20.9353V17.8333C31.8333 14.6117 29.2216 12 26 12C22.7783 12 20.1666 14.6117 20.1666 17.8333V20.9354C20.1666 21.0835 20.1077 21.2255 20.003 21.3302L19.6784 21.6548C19.5789 21.7542 19.5292 21.8042 19.4896 21.8594C19.4147 21.9636 19.3651 22.0837 19.3443 22.2104C19.3333 22.2774 19.3333 22.3477 19.3333 22.4883C19.3333 22.8096 19.3333 22.9702 19.377 23.0998C19.4602 23.3463 19.654 23.54 19.9005 23.6231C20.0296 23.6667 20.1892 23.6667 20.5079 23.6667H23.5" stroke="currentColor" stroke-width="1.5" stroke-linecap="round" stroke-linejoin="round"/>
</svg>
