<svg width="20" height="20" viewBox="17 13 18 15" fill="none" xmlns="http://www.w3.org/2000/svg">
<path d="M21 24.5C21.053 24.5 21.1077 24.5 21.1641 24.5H26M21 24.5C20.1764 24.4993 19.7444 24.489 19.4098 24.3185C19.0962 24.1587 18.8414 23.9031 18.6817 23.5895C18.5 23.233 18.5 22.7669 18.5 21.8335V17.1668C18.5 16.2334 18.5 15.7664 18.6817 15.4098C18.8414 15.0962 19.0962 14.8414 19.4098 14.6817C19.7664 14.5 20.2334 14.5 21.1668 14.5H30.8335C31.7669 14.5 32.233 14.5 32.5895 14.6817C32.9031 14.8414 33.1587 15.0962 33.3185 15.4098C33.5 15.766 33.5 16.2325 33.5 17.1641V21.8359C33.5 22.7675 33.5 23.2333 33.3185 23.5895C33.1587 23.9031 32.9031 24.1587 32.5895 24.3185C32.2333 24.5 31.7675 24.5 30.8359 24.5H26M21 24.5C21 23.5795 22.1193 22.8333 23.5 22.8333C24.8807 22.8333 26 23.5795 26 24.5M31 21.1667H27.6667M31 18.6667H28.5M23.5 20.3333C22.5795 20.3333 21.8333 19.5871 21.8333 18.6667C21.8333 17.7462 22.5795 17 23.5 17C24.4205 17 25.1667 17.7462 25.1667 18.6667C25.1667 19.5871 24.4205 20.3333 23.5 20.3333Z" stroke="currentColor" stroke-width="1.5" stroke-linecap="round" stroke-linejoin="round"/>
</svg>
