<svg width="20" height="20" viewBox="0 0 20 20" fill="none" xmlns="http://www.w3.org/2000/svg">
<path d="M3.95661 6.37077L3.68059 9.40698C3.63971 9.85664 3.6191 10.0834 3.65652 10.2986C3.68996 10.4909 3.75674 10.6759 3.85415 10.8451C3.9636 11.0351 4.12538 11.1968 4.44708 11.5185L8.75999 15.8315C9.41586 16.4873 9.74397 16.8154 10.1233 16.9387C10.4581 17.0475 10.8192 17.0477 11.154 16.9389C11.5345 16.8153 11.8652 16.485 12.5252 15.825L15.825 12.5251C16.4851 11.8651 16.8145 11.5353 16.9382 11.1547C17.047 10.82 17.0463 10.4592 16.9375 10.1245C16.8139 9.74392 16.4849 9.41412 15.8249 8.7541L11.5226 4.45183C11.198 4.12719 11.0356 3.96485 10.8447 3.8549C10.6756 3.75748 10.4905 3.69042 10.2982 3.65699C10.0812 3.61925 9.8525 3.64 9.39528 3.68156L6.37043 3.95655C5.58313 4.02812 5.18923 4.06407 4.88117 4.23537C4.60957 4.38641 4.38566 4.61031 4.23462 4.88192C4.06417 5.18844 4.02862 5.57955 3.95776 6.35902L3.95661 6.37077Z" stroke="currentColor" stroke-width="1.5" stroke-linecap="round" stroke-linejoin="round"/>
<path d="M8.09384 8.09406C8.41928 7.76862 8.41928 7.24099 8.09384 6.91555C7.76841 6.59011 7.24039 6.59011 6.91496 6.91555C6.58952 7.24099 6.58921 7.7685 6.91464 8.09393C7.24008 8.41937 7.76841 8.4195 8.09384 8.09406Z" stroke="currentColor" stroke-width="1.5" stroke-linecap="round" stroke-linejoin="round"/>
</svg>
